<?xml version="1.0" encoding="UTF-8" standalone="no"?><!DOCTYPE svg PUBLIC "-//W3C//DTD SVG 1.1//EN" "http://www.w3.org/Graphics/SVG/1.1/DTD/svg11.dtd"><svg width="100%" height="100%" viewBox="0 0 834 235" version="1.1" xmlns="http://www.w3.org/2000/svg" xmlns:xlink="http://www.w3.org/1999/xlink" xml:space="preserve" xmlns:serif="http://www.serif.com/" style="fill-rule:evenodd;clip-rule:evenodd;stroke-linejoin:round;stroke-miterlimit:2;"><g id="logo-full"><path d="M25.269,143.032c16.099,16.103 37.253,24.15 58.399,24.15c21.147,0 42.3,-8.051 58.403,-24.15l75.501,-75.505l-18.891,-18.891l-75.501,75.505c-21.787,21.787 -57.237,21.787 -79.024,0l-1.117,-1.118c-21.787,-21.787 -21.787,-57.237 0,-79.024l0.957,-0.957c21.787,-21.787 57.237,-21.787 79.024,0l6.506,6.506l18.891,-18.891l-6.506,-6.506c-32.202,-32.202 -84.6,-32.202 -116.802,0l-0.957,0.957c-32.202,32.202 -32.202,84.6 0,116.803l1.117,1.118l0,0.003Z" style="fill:#fff;fill-rule:nonzero;"/><path d="M286.958,24.152c-16.099,-16.099 -37.249,-24.151 -58.4,-24.151c-21.15,-0 -42.3,8.051 -58.403,24.151l-75.501,75.505l18.891,18.891l75.501,-75.501c21.787,-21.787 57.237,-21.787 79.024,-0l1.118,1.117c21.787,21.787 21.787,57.237 0,79.024l-0.957,0.958c-21.787,21.787 -57.237,21.787 -79.024,0l-6.506,-6.506l-18.891,18.891l6.506,6.506c32.202,32.202 84.6,32.202 116.802,0l0.957,-0.957c32.202,-32.202 32.202,-84.6 0,-116.802l-1.117,-1.117l0,-0.007Z" style="fill:#fff;fill-rule:nonzero;"/><path d="M675.789,63.274l-43.317,103.658l-15.213,0l11.829,-29.268l-30.642,-74.391l15.4,0l23.108,56.367l23.429,-56.367l15.404,0Z" style="fill:#fff;fill-rule:nonzero;"/><path d="M352.302,83.592c0,-31.951 25.397,-57.842 57.348,-57.842c17.368,0 32.443,7.376 42.439,19.173l-10.817,9.176c-7.538,-8.849 -19.004,-14.585 -31.623,-14.585c-23.757,0 -42.439,19.827 -42.439,44.076c0,24.248 18.678,44.075 42.439,44.075c12.618,0 24.085,-5.733 31.623,-14.582l10.817,9.176c-9.992,11.797 -25.071,19.17 -42.439,19.17c-31.951,0 -57.348,-25.888 -57.348,-57.839" style="fill:#fff;fill-rule:nonzero;"/><path d="M511.318,64.586l-2.296,13.436c-4.096,-1.967 -8.192,-2.621 -11.142,-2.621c-15.238,0 -21.3,16.221 -21.3,36.375l0,28.018l-14.417,0l0,-76.521l14.417,0l0,17.37c3.933,-13.436 11.308,-19.006 21.463,-19.006c5.408,0 10.979,1.476 13.275,2.952" style="fill:#fff;fill-rule:nonzero;"/><path d="M576.535,101.289c0,-16.548 -13.433,-26.215 -26.05,-26.215c-13.929,0 -25.071,10.815 -25.071,26.215c0,15.4 11.142,26.709 25.071,26.709c13.925,0 26.05,-10.325 26.05,-26.709Zm14.258,-38.015l0,76.521l-14.254,0l0,-12.124c-5.079,8.848 -16.221,13.763 -27.2,13.763c-20.971,0 -38.342,-15.894 -38.342,-39.978c0,-24.085 17.204,-39.815 38.179,-39.815c11.471,0 22.283,4.587 27.363,13.6l0,-11.96l14.254,0l0,-0.007Z" style="fill:#fff;fill-rule:nonzero;"/><path d="M740.577,101.289c0,-15.73 -11.8,-26.215 -25.892,-26.215c-14.088,0 -25.558,10.488 -25.558,26.215c0,15.727 11.633,26.709 25.558,26.709c13.929,0 25.892,-10.815 25.892,-26.709Zm-65.871,0c0,-24.252 18.188,-39.655 39.979,-39.655c21.787,0 40.146,15.403 40.146,39.655c0,24.252 -18.354,40.142 -40.146,40.142c-21.796,0 -39.979,-15.894 -39.979,-40.142Z" style="fill:#fff;fill-rule:nonzero;"/><path d="M833.331,95.552l0,44.239l-14.254,0l0,-43.421c0,-12.782 -7.862,-20.645 -18.517,-20.645c-10.65,0 -23.429,6.064 -23.429,22.612l0,41.454l-14.254,0l0,-76.521l14.254,0l0,11.633c4.587,-9.339 17.037,-13.273 25.396,-13.273c19.008,0 30.971,12.455 30.808,33.918" style="fill:#fff;fill-rule:nonzero;"/><path d="M464.943,213.632c0,-11.33 9.008,-20.802 20.337,-20.802c6.329,0 11.85,2.788 15.4,7.206l-4.417,3.543c-2.558,-3.136 -6.513,-5.172 -10.925,-5.172c-8.133,0 -14.413,6.972 -14.413,15.222c0,8.25 6.217,15.048 14.413,15.048c4.412,0 8.367,-2.033 10.925,-5.169l4.417,3.544c-3.55,4.417 -9.067,7.205 -15.4,7.205c-11.329,0 -20.337,-9.297 -20.337,-20.628l0,0.003Z" style="fill:#fff;fill-rule:nonzero;"/><path d="M506.147,213.632c0,-11.39 8.833,-20.802 20.221,-20.802c11.392,0 20.337,9.412 20.337,20.802c0,11.39 -8.892,20.628 -20.337,20.628c-11.446,0 -20.221,-9.298 -20.221,-20.628Zm34.575,0c0,-8.25 -6.158,-15.222 -14.354,-15.222c-8.192,0 -14.237,6.972 -14.237,15.222c0,8.25 6.104,15.048 14.237,15.048c8.138,0 14.354,-6.857 14.354,-15.048Z" style="fill:#fff;fill-rule:nonzero;"/><path d="M578.468,193.53l5.987,0l0,40.034l-5.638,0l-17.487,-29.167l0,29.167l-5.988,0l0,-40.034l5.813,0l17.312,28.937l0,-28.937Z" style="fill:#fff;fill-rule:nonzero;"/><path d="M595.385,222.06l5.925,0c0.117,3.429 3.308,6.739 8.308,6.739c5,0 7.554,-3.021 7.554,-6.332c0,-3.543 -3.196,-5.228 -6.45,-6.102l-5.113,-1.278c-8.542,-2.147 -9.938,-7.205 -9.938,-10.516c0,-7.031 6.217,-11.737 13.304,-11.737c7.087,0 12.842,4.532 12.842,11.852l-5.925,0c0,-3.777 -2.962,-6.391 -7.087,-6.391c-3.775,0 -7.146,2.5 -7.146,6.161c0,1.278 0.408,3.892 5.463,5.228l5.054,1.396c6.742,1.803 10.983,5.228 10.983,11.097c0,6.683 -5.462,12.086 -13.538,12.086c-8.542,0 -14.237,-5.754 -14.237,-12.201l0,-0.003Z" style="fill:#fff;fill-rule:nonzero;"/><path d="M632.981,219.793l0,-26.264l5.988,0l0,26.205c0,6.102 4.062,8.831 8.771,8.831c4.704,0 8.829,-2.729 8.829,-8.831l0,-26.205l5.983,0l0,26.264c0,9.179 -6.854,14.467 -14.817,14.467c-7.963,0 -14.758,-5.287 -14.758,-14.467l0.004,0Z" style="fill:#fff;fill-rule:nonzero;"/><path d="M681.522,228.099l16.096,0l0,5.462l-22.083,0l0,-40.034l5.988,0l0,34.572Z" style="fill:#fff;fill-rule:nonzero;"/><path d="M727.014,193.53l0,5.462l-11.913,0l0,34.573l-5.983,0l0,-34.573l-11.912,0l0,-5.462l29.808,0Z" style="fill:#fff;fill-rule:nonzero;"/><rect x="735.902" y="193.53" width="5.983" height="40.034" style="fill:#fff;fill-rule:nonzero;"/><path d="M778.439,193.53l5.983,0l0,40.034l-5.633,0l-17.492,-29.167l0,29.167l-5.983,0l0,-40.034l5.808,0l17.317,28.937l0,-28.937Z" style="fill:#fff;fill-rule:nonzero;"/><path d="M793.997,213.632c0,-11.39 8.888,-20.802 20.275,-20.802c5.463,0 10.342,2.148 13.829,5.521l-4.183,3.836c-2.5,-2.325 -5.925,-3.836 -9.646,-3.836c-8.075,0 -14.292,7.032 -14.292,15.281c0,8.25 6.217,15.107 14.35,15.107c6.742,0 12.433,-4.473 12.433,-10.342l-11.504,0l0,-5.113l18.071,0c0,14.237 -7.612,20.976 -18.942,20.976c-11.325,0 -20.392,-9.298 -20.392,-20.628Z" style="fill:#fff;fill-rule:nonzero;"/></g></svg>