<svg viewBox="0 0 132 54" fill="none" xmlns="http://www.w3.org/2000/svg">
<g clip-path="url(#clip0_1_1938)">
<path d="M40.2329 7.39182C39.3264 6.4843 38.1232 5.98587 36.8429 5.98587C35.5645 5.98587 34.3624 6.48432 33.4585 7.38865L26.2131 14.6265C25.3077 15.5329 24.8088 16.738 24.8077 18.0188C24.8077 19.3006 25.3056 20.5046 26.211 21.41C27.1154 22.3165 28.318 22.8159 29.5974 22.8159C30.8746 22.8159 32.0784 22.317 32.9848 21.4131L40.2287 14.1727C42.0963 12.3036 42.0973 9.26145 40.2329 7.39182Z" fill="white"/>
<path d="M40.2287 39.1685L32.9848 31.9296C32.0784 31.0242 30.8746 30.5263 29.5974 30.5263C28.318 30.5263 27.1154 31.0263 26.211 31.9317C25.3056 32.837 24.8067 34.0421 24.8077 35.3229C24.8088 36.6043 25.3077 37.8088 26.2131 38.7163L33.4586 45.9541C34.3613 46.8584 35.5645 47.3568 36.8429 47.3568C38.1232 47.3568 39.3264 46.8573 40.2329 45.9509C42.0973 44.0813 42.0963 41.0381 40.2287 39.1685Z" fill="white"/>
<path d="M25.7319 26.6698V26.654C25.7288 25.3785 25.233 24.1797 24.3339 23.2774L8.47649 7.38854C7.57156 6.48209 6.36888 5.98157 5.08954 5.98157C3.81229 5.98157 2.60991 6.48002 1.70686 7.38434C-0.157005 9.25085 -0.157551 12.2898 1.70524 14.1595L14.1878 26.6698L1.70473 39.179C-0.158655 41.0486 -0.157571 44.0887 1.70684 45.9531C2.60989 46.8574 3.81175 47.3559 5.09007 47.3559C6.36839 47.3559 7.57106 46.8564 8.47647 45.951L24.3328 30.06C25.233 29.1599 25.7287 27.9611 25.7308 26.6855C25.7319 26.6813 25.7319 26.6751 25.7319 26.6698Z" fill="white"/>
<path d="M56.4477 40.1393L58.6931 46.1337L60.9483 40.1393H62.2457V47.2728H61.3475V41.3382H61.3278L59.1021 47.2728H58.2939L56.0688 41.3382H56.0485V47.2728H55.1504V40.1393H56.4477Z" fill="white"/>
<path d="M65.6485 41.9871C66.9328 41.9871 67.5747 42.4502 67.5747 43.3759V46.3533C67.5747 46.5464 67.6647 46.6426 67.844 46.6426C67.9308 46.6426 68.017 46.6265 68.1039 46.5927V47.2525C67.9375 47.3456 67.7343 47.3919 67.4947 47.3919C67.016 47.3919 66.7764 47.126 66.7764 46.5926C66.3237 47.126 65.7187 47.3919 64.9603 47.3919C64.4276 47.3919 64.0102 47.267 63.7077 47.0173C63.4047 46.7675 63.2534 46.4095 63.2534 45.9433C63.2534 45.4838 63.4031 45.1175 63.7025 44.8443C64.0019 44.5716 64.6973 44.3651 65.7883 44.2251C66.161 44.1788 66.412 44.107 66.542 44.0102C66.6714 43.9139 66.7364 43.7724 66.7364 43.5856C66.7364 43.0194 66.3538 42.7364 65.5887 42.7364C65.1698 42.7364 64.8553 42.815 64.6459 42.9711C64.4364 43.1277 64.3216 43.3759 64.3013 43.7157H63.453C63.5196 42.5631 64.2514 41.9871 65.6485 41.9871ZM64.1516 45.8834C64.1516 46.1233 64.2384 46.3096 64.4115 46.4428C64.584 46.5765 64.8304 46.6426 65.1495 46.6426C65.609 46.6426 65.9863 46.5297 66.2826 46.3034C66.5783 46.077 66.7265 45.8069 66.7265 45.4937V44.605C66.5731 44.7111 66.3735 44.7813 66.1277 44.8147L65.2597 44.9442C64.8803 44.9978 64.6006 45.0993 64.4213 45.2491C64.2415 45.399 64.1516 45.6103 64.1516 45.8834Z" fill="white"/>
<path d="M71.357 41.9871C72.541 41.9871 73.1331 42.6032 73.1331 43.8354V47.2722H72.2848V43.7453C72.2848 43.4591 72.1949 43.2193 72.0156 43.0262C71.8357 42.8332 71.5727 42.7364 71.2271 42.7364C70.7411 42.7364 70.3669 42.8831 70.1044 43.1761C69.8414 43.469 69.7104 43.852 69.7104 44.325V47.2722H68.8622V42.1073H69.6606V42.9263H69.6803C70.053 42.3004 70.6117 41.9871 71.357 41.9871Z" fill="white"/>
<path d="M76.9856 41.9871C77.7169 41.9871 78.2959 42.2353 78.7216 42.7317C79.1473 43.2276 79.3604 43.8853 79.3604 44.7048C79.3604 45.5103 79.1457 46.1597 78.7169 46.653C78.2876 47.1458 77.7169 47.3919 77.0053 47.3919C76.6862 47.3919 76.3733 47.3274 76.0672 47.1973C75.761 47.0672 75.5183 46.8627 75.339 46.5828H75.3187V49.2506H74.4705V42.1073H75.3187V42.8066H75.339C75.6113 42.2603 76.1602 41.9871 76.9856 41.9871ZM75.2891 44.6846C75.2891 45.284 75.43 45.7601 75.7132 46.1134C75.9955 46.4662 76.3967 46.6426 76.9154 46.6426C77.4077 46.6426 77.7886 46.4678 78.0584 46.1181C78.3276 45.7684 78.4622 45.2778 78.4622 44.6445C78.4622 44.0789 78.3178 43.6189 78.0282 43.2661C77.7388 42.9128 77.3479 42.7364 76.8557 42.7364C76.3764 42.7364 75.9955 42.9096 75.7132 43.2562C75.4299 43.6022 75.2891 44.0789 75.2891 44.6846Z" fill="white"/>
<path d="M82.5335 41.9871C83.3054 41.9871 83.9156 42.2337 84.3647 42.7265C84.8137 43.2193 85.0383 43.8754 85.0383 44.6944C85.0383 45.4807 84.8137 46.1269 84.3647 46.6327C83.9156 47.139 83.3054 47.3919 82.5335 47.3919C81.7752 47.3919 81.1681 47.1473 80.7123 46.6577C80.2565 46.168 80.0288 45.514 80.0288 44.6944C80.0288 43.8686 80.2533 43.2109 80.7024 42.7213C81.1515 42.2321 81.7617 41.9871 82.5335 41.9871ZM80.927 44.6944C80.927 45.2741 81.0767 45.7435 81.3761 46.1035C81.6754 46.4631 82.0611 46.6426 82.5336 46.6426C82.9993 46.6426 83.3834 46.4647 83.6864 46.1082C83.9889 45.7523 84.1402 45.2809 84.1402 44.6945C84.1402 44.1153 83.9905 43.6439 83.6911 43.2812C83.3917 42.918 83.0029 42.7364 82.5237 42.7364C82.0647 42.7364 81.6838 42.9195 81.3813 43.2859C81.0782 43.6522 80.927 44.1221 80.927 44.6944Z" fill="white"/>
<path d="M86.2555 42.1073L87.4234 46.333H87.4431L88.4811 42.1073H89.4094L90.4967 46.333H90.5071L91.6646 42.1073H92.5425L90.9063 47.2623L90.8959 47.2722H89.9978L88.9401 43.1662H88.9302L87.8922 47.2722H86.9743L85.3179 42.1073L86.2555 42.1073Z" fill="white"/>
<path d="M95.1974 41.9871C95.9288 41.9871 96.501 42.2504 96.9137 42.7764C97.3259 43.3025 97.5322 43.992 97.5322 44.8443V44.9442H93.6704V45.0046C93.6704 45.5041 93.8133 45.9022 94.0997 46.1982C94.3856 46.4948 94.778 46.6426 95.277 46.6426C96.0155 46.6426 96.461 46.3065 96.6143 45.6337H97.4527C97.3394 46.2133 97.0899 46.6515 96.7042 46.9476C96.3181 47.2441 95.8326 47.3919 95.2473 47.3919C94.4355 47.3919 93.8201 47.126 93.4011 46.5927C92.9817 46.0598 92.7722 45.4141 92.7722 44.6549C92.7722 43.8889 93.002 43.2526 93.4609 42.7462C93.9198 42.2405 94.4989 41.9871 95.1974 41.9871ZM96.6341 44.1949C96.6076 43.7755 96.4563 43.4274 96.1803 43.1511C95.9038 42.8748 95.5566 42.7364 95.1372 42.7364C94.7448 42.7364 94.4121 42.868 94.1392 43.1313C93.8664 43.3941 93.7104 43.749 93.6704 44.1949L96.6341 44.1949Z" fill="white"/>
<path d="M101.095 41.9871V42.8862C100.456 42.8862 99.9855 43.0548 99.683 43.391C99.38 43.7271 99.2287 44.2516 99.2287 44.9645V47.2722H98.3805V42.1073H99.1788V43.1959H99.1991C99.5915 42.3904 100.184 41.9871 100.975 41.9871H101.095Z" fill="white"/>
<path d="M105.317 39.9692C106.161 39.9692 106.855 40.1706 107.397 40.5733C107.939 40.9766 108.267 41.5641 108.38 42.3368H107.432C107.339 41.831 107.109 41.4428 106.743 41.1727C106.378 40.9032 105.902 40.7684 105.317 40.7684C104.578 40.7684 103.986 41.0416 103.54 41.5875C103.094 42.1338 102.871 42.8696 102.871 43.7953C102.871 44.6013 103.096 45.2778 103.545 45.8236C103.994 46.37 104.584 46.6426 105.317 46.6426C105.975 46.6426 106.52 46.4397 106.953 46.0333C107.385 45.6274 107.602 45.091 107.602 44.4249V44.3151H105.327V43.5159H108.45V47.2722H107.851L107.602 46.383C107.342 46.7227 107.013 46.984 106.614 47.1671C106.215 47.3503 105.782 47.4419 105.317 47.4419C104.345 47.4419 103.537 47.0958 102.892 46.4033C102.246 45.7102 101.923 44.8578 101.923 43.8452C101.923 42.713 102.224 41.7841 102.827 41.0583C103.428 40.3324 104.258 39.9692 105.317 39.9692Z" fill="white"/>
<path d="M112.502 41.9871V42.8862C111.863 42.8862 111.392 43.0548 111.09 43.391C110.787 43.7271 110.635 44.2516 110.635 44.9645V47.2722H109.787V42.1073H110.586V43.1959H110.606C110.998 42.3904 111.59 41.9871 112.382 41.9871H112.502Z" fill="white"/>
<path d="M115.136 41.9871C115.907 41.9871 116.518 42.2337 116.967 42.7265C117.416 43.2193 117.641 43.8754 117.641 44.6944C117.641 45.4807 117.416 46.1269 116.967 46.6327C116.518 47.139 115.907 47.3919 115.136 47.3919C114.377 47.3919 113.77 47.1473 113.314 46.6577C112.859 46.168 112.631 45.514 112.631 44.6944C112.631 43.8686 112.855 43.2109 113.304 42.7213C113.754 42.2321 114.364 41.9871 115.136 41.9871ZM113.529 44.6944C113.529 45.2741 113.679 45.7435 113.978 46.1035C114.277 46.4631 114.663 46.6426 115.136 46.6426C115.601 46.6426 115.985 46.4647 116.288 46.1082C116.591 45.7523 116.743 45.2809 116.743 44.6945C116.743 44.1153 116.593 43.6439 116.294 43.2812C115.994 42.918 115.605 42.7364 115.126 42.7364C114.667 42.7364 114.286 42.9195 113.983 43.2859C113.68 43.6522 113.529 44.1221 113.529 44.6944Z" fill="white"/>
<path d="M119.368 42.1073V45.6238C119.368 45.9235 119.461 46.168 119.647 46.358C119.833 46.5479 120.09 46.6426 120.415 46.6426C120.914 46.6426 121.293 46.4964 121.553 46.2034C121.813 45.91 121.942 45.5275 121.942 45.0545V42.1073H122.79V47.2722H121.992V46.4532H121.972C121.619 47.0792 121.06 47.3919 120.295 47.3919C119.111 47.3919 118.519 46.7794 118.519 45.554V42.1073H119.368Z" fill="white"/>
<path d="M126.433 41.9871C127.164 41.9871 127.743 42.2353 128.169 42.7317C128.595 43.2276 128.807 43.8853 128.807 44.7048C128.807 45.5103 128.593 46.1597 128.164 46.653C127.735 47.1458 127.164 47.3919 126.452 47.3919C126.133 47.3919 125.82 47.3274 125.514 47.1973C125.209 47.0672 124.965 46.8627 124.786 46.5828H124.766V49.2506H123.917V42.1073H124.766V42.8066H124.786C125.059 42.2603 125.608 41.9871 126.433 41.9871ZM124.736 44.6846C124.736 45.284 124.877 45.7601 125.16 46.1134C125.443 46.4662 125.844 46.6426 126.362 46.6426C126.855 46.6426 127.236 46.4678 127.505 46.1181C127.775 45.7684 127.909 45.2778 127.909 44.6445C127.909 44.0789 127.765 43.6189 127.475 43.2661C127.186 42.9128 126.795 42.7364 126.303 42.7364C125.824 42.7364 125.443 42.9096 125.16 43.2562C124.877 43.6022 124.736 44.0789 124.736 44.6846Z" fill="white"/>
<path d="M66.6174 13.7177V15.5931H57.297V20.9152H65.9843V22.791H57.297V28.5819H66.687V30.4573H55.0714V13.7177H66.6174Z" fill="white"/>
<path d="M70.9958 18.3363L73.8764 22.5563H73.9003L76.9211 18.3363H79.3099L75.1414 23.916L79.8255 30.4573H77.2725L73.9003 25.4401L70.528 30.4573H68.1163L72.6591 24.0804L68.4438 18.3363L70.9958 18.3363Z" fill="white"/>
<path d="M86.9203 18.0548C88.6376 18.0548 89.9962 18.6376 90.9952 19.8016C91.9942 20.9661 92.4942 22.5095 92.4942 24.4322C92.4942 26.3231 91.9901 27.8472 90.9838 29.0039C89.9765 30.1607 88.6376 30.7388 86.9671 30.7388C86.2176 30.7388 85.4837 30.5863 84.7664 30.2814C84.0481 29.9765 83.4784 29.4962 83.0564 28.8395H83.0096V35.0992H81.0189V18.3363H83.0096V19.9775H83.0564C83.6967 18.6958 84.9847 18.0548 86.9203 18.0548ZM82.9389 24.3848C82.9389 25.7918 83.2705 26.9095 83.9348 27.7379C84.598 28.5663 85.5388 28.98 86.7561 28.98C87.912 28.98 88.806 28.5699 89.438 27.7494C90.0701 26.9288 90.3861 25.7762 90.3861 24.2911C90.3861 22.9632 90.0472 21.8845 89.3673 21.0562C88.6885 20.2278 87.7717 19.8136 86.6157 19.8136C85.492 19.8136 84.598 20.22 83.9348 21.0322C83.2705 21.8455 82.9389 22.9632 82.9389 24.3848Z" fill="white"/>
<path d="M99.4497 18.0548C101.166 18.0548 102.509 18.6725 103.477 19.9072C104.445 21.142 104.929 22.7598 104.929 24.76V24.9947H95.8664V25.1352C95.8664 26.3075 96.2022 27.2415 96.8727 27.9367C97.5442 28.6324 98.4653 28.98 99.6368 28.98C101.37 28.98 102.415 28.1912 102.775 26.6124H104.742C104.476 27.9721 103.891 28.9998 102.985 29.6955C102.08 30.3912 100.94 30.7388 99.5661 30.7388C97.6617 30.7388 96.2178 30.1138 95.2344 28.8629C94.25 27.6125 93.7583 26.0968 93.7583 24.3146C93.7583 22.5178 94.2968 21.0249 95.3748 19.837C96.4517 18.649 97.8104 18.0548 99.4497 18.0548ZM102.822 23.2364C102.759 22.2514 102.404 21.435 101.756 20.7861C101.108 20.1378 100.293 19.8136 99.3083 19.8136C98.3873 19.8136 97.6066 20.1222 96.9673 20.7393C96.327 21.357 95.96 22.1895 95.8664 23.2364H102.822Z" fill="white"/>
<path d="M113.008 18.0548V20.1648C111.509 20.1648 110.405 20.5597 109.694 21.3491C108.984 22.1385 108.629 23.3691 108.629 25.0415V30.4572H106.638V18.3363H108.512V20.8917H108.559C109.48 19.0008 110.869 18.0548 112.728 18.0548L113.008 18.0548Z" fill="white"/>
<path d="M116.614 13.7177V16.1561H114.624V13.7177H116.614ZM116.614 18.3363V30.4572H114.624V18.3363H116.614Z" fill="white"/>
<path d="M123.335 18.0548C124.974 18.0548 126.188 18.3717 126.976 19.0044C127.765 19.6377 128.198 20.5868 128.277 21.8528H126.286V21.8294C126.224 21.1732 125.938 20.6732 125.432 20.3292C124.923 19.9853 124.271 19.8136 123.476 19.8136C122.68 19.8136 122.051 19.9463 121.59 20.2122C121.13 20.4781 120.899 20.8605 120.899 21.3606C120.899 21.8143 121.102 22.1775 121.508 22.4507C121.915 22.7244 122.531 22.9549 123.359 23.1428L125.232 23.5648C126.404 23.8307 127.293 24.2251 127.901 24.7485C128.511 25.2725 128.815 25.9953 128.815 26.9173C128.815 28.1209 128.355 29.0586 127.434 29.7303C126.512 30.4026 125.256 30.7388 123.663 30.7388C122.118 30.7388 120.892 30.3985 119.987 29.7189C119.081 29.0388 118.597 28.0111 118.534 26.6358H120.525C120.556 27.3862 120.852 27.9643 121.415 28.3707C121.977 28.777 122.765 28.98 123.78 28.98C125.732 28.98 126.707 28.379 126.707 27.1749C126.707 26.6436 126.469 26.2216 125.993 25.9089C125.517 25.5967 124.498 25.2762 122.937 24.9478C121.453 24.6512 120.392 24.2365 119.753 23.7053C119.112 23.174 118.792 22.4393 118.792 21.5016C118.792 20.4697 119.202 19.6377 120.022 19.0045C120.841 18.3717 121.945 18.0548 123.335 18.0548Z" fill="white"/>
<path d="M128.02 14.6288C128.116 14.4105 128.247 14.221 128.412 14.0605C128.577 13.9 128.77 13.7738 128.99 13.6823C129.209 13.5907 129.443 13.5451 129.689 13.5451C129.936 13.5451 130.169 13.5907 130.387 13.6823C130.605 13.7738 130.796 13.9 130.96 14.0605C131.123 14.221 131.253 14.4105 131.349 14.6288C131.446 14.8471 131.493 15.0831 131.493 15.3367C131.493 15.5968 131.446 15.8369 131.349 16.0568C131.253 16.2769 131.123 16.4679 130.96 16.63C130.796 16.7921 130.605 16.9183 130.387 17.0081C130.169 17.098 129.936 17.1429 129.689 17.1429C129.443 17.1429 129.209 17.098 128.99 17.0081C128.77 16.9183 128.577 16.7921 128.412 16.63C128.247 16.4679 128.116 16.2769 128.02 16.0568C127.924 15.8369 127.876 15.5968 127.876 15.3367C127.876 15.0831 127.924 14.8472 128.02 14.6288ZM128.316 15.9509C128.391 16.1387 128.496 16.3017 128.629 16.4397C128.762 16.5779 128.919 16.6862 129.1 16.7648C129.281 16.8436 129.478 16.8828 129.689 16.8828C129.898 16.8828 130.092 16.8436 130.271 16.7648C130.451 16.6862 130.607 16.5779 130.741 16.4397C130.874 16.3017 130.978 16.1387 131.053 15.9509C131.129 15.763 131.167 15.5584 131.167 15.3367C131.167 15.1217 131.129 14.921 131.053 14.7347C130.978 14.5485 130.874 14.3872 130.741 14.2506C130.607 14.1142 130.451 14.0066 130.271 13.928C130.092 13.8492 129.898 13.81 129.689 13.81C129.478 13.81 129.281 13.8492 129.1 13.928C128.919 14.0066 128.762 14.1142 128.629 14.2506C128.496 14.3872 128.391 14.5485 128.316 14.7347C128.241 14.921 128.203 15.1217 128.203 15.3367C128.203 15.5584 128.241 15.763 128.316 15.9509ZM129.8 14.2915C130.05 14.2915 130.235 14.3413 130.356 14.4409C130.476 14.5404 130.536 14.6914 130.536 14.8936C130.536 15.0831 130.483 15.2221 130.378 15.3103C130.271 15.3987 130.14 15.4508 129.983 15.4669L130.584 16.3964H130.233L129.661 15.491H129.314V16.3964H128.987V14.2915H129.8ZM129.656 15.226C129.73 15.226 129.799 15.2236 129.865 15.2187C129.931 15.214 129.989 15.2003 130.041 15.1778C130.092 15.1554 130.133 15.1209 130.163 15.0743C130.194 15.0279 130.209 14.9628 130.209 14.8791C130.209 14.8085 130.195 14.7523 130.168 14.7106C130.141 14.669 130.105 14.6369 130.062 14.6143C130.019 14.5918 129.969 14.5765 129.913 14.5685C129.857 14.5606 129.802 14.5565 129.747 14.5565H129.314V15.226L129.656 15.226Z" fill="white"/>
</g>
<defs>
<clipPath id="clip0_1_1938">
<rect width="131" height="54" fill="white" transform="translate(0.106812)"/>
</clipPath>
</defs>
</svg>
