<?xml version="1.0" encoding="UTF-8" standalone="no"?> <svg xmlns="http://www.w3.org/2000/svg" xmlns:svg="http://www.w3.org/2000/svg" width="972.58026" height="123.65701" viewBox="0 0 972.58026 123.65701" fill="none" version="1.1" id="svg12"><defs id="defs16"></defs><path d="m 437.0103,18.018003 c -9.565,-0.158 -17.052,2.446 -19.118,9.214 -4.272,13.985 23.365,28.992 36.391,36.146 2.799,1.529 3.998,0.575 2.226,-1.472 -8.232,-9.474 -19.941,-28.131 -3.416,-39.081 0.804,-0.53 1.784,-1.132 2.662,-1.644 l 0.264,-0.146 -0.264,-0.046 c -6.515,-1.786 -13.006,-2.876 -18.745,-2.971 z m 88.874,41.434 c -1.434,-0.281 -1.785,0.637 -0.445,2.172 8.218,9.473 19.947,28.125 3.407,39.080997 v -0.01 c -0.789,0.53 -1.751,1.136 -2.644,1.654 l -0.272,0.155 0.272,0.037 c 17.358,4.762 34.54,4.583 37.845,-6.251997 4.273,-13.985 -23.35,-28.989 -36.391,-36.136 -0.696,-0.383 -1.294,-0.606 -1.772,-0.7 z" fill="#f67200" id="path4"></path><path d="m 874.2023,3.1738281e-6 c -5.255,0 -9.514,4.2600000261719 -9.514,9.5050000261719 0,5.2459998 4.259,9.5039998 9.514,9.5039998 5.24,0 9.486,-4.258 9.486,-9.5039998 0,-5.245 -4.246,-9.5050000261719 -9.486,-9.5050000261719 z M 678.5263,8.9500032 V 27.123003 h -14.62 v 12.249 h 14.62 v 38.553 c 0,8.828 1.739,24.923997 24.07,24.923997 5.598,0 9.184,-0.386 14.111,-1.054 V 89.029003 c 0,0 -5.087,1.299 -9.613,1.299 -11.806,0 -14.384,-4.842 -14.384,-14.066 v -36.89 h 23.343 v -12.249 h -23.343 V 8.9500032 Z m 82.042,16.6369998 c -23.463,0 -41.026,15.259 -41.026,39.027 v 0.599 c 0,23.181 17.658,38.144997 43.279,38.144997 12.312,0 23.819,-3.078 34.374,-13.202997 l -10.413,-9.141 c 0,0 -8.928,9.323 -23.979,9.323 -13.979,0 -27.528,-8.854 -28.168,-20.59 l 64.94,-0.272 c 0.326,-2.938 0.326,-6.17 0.326,-6.17 0,-20.684 -16.022,-37.718 -39.335,-37.718 z m 170.924,0.464 c -16.034,0 -39.144,9.7 -39.144,38.272 0,28.302 20.788,38.879997 38.98,38.879997 18.133,0 27.223,-10.075997 27.223,-10.075997 l 0.736,10.057997 h 13.293 V 27.059003 h -13.266 l -0.763,9.441 c 0,0 -8.822,-10.449 -27.059,-10.449 z m -311.491,0.054 c -15.319,0 -31.766,5.796 -31.766,21.317 0,13.439 12.221,17.619 32.393,21.417 13.473,2.529 25.905,3.816 25.905,11.085 0,4.582 -6.118,10.458 -21.407,10.458 -10.853,0 -21.811,-2.279 -25.161,-10.013 l -13.066,5.488 c 5.36,11.938 19.575,18.118997 36.055,18.118997 32.916,0 39.271,-15.646997 39.271,-24.533997 0,-14.799 -14.728,-19.048 -29.421,-21.671 -14.619,-2.611 -28.995,-4.433 -28.995,-11.249 0,-4.438 4.422,-8.359 17.21,-8.359 9.513,0 20.484,2.211 23.461,8.95 l 13.475,-5.67 c -5.151,-10.357 -20.417,-15.338 -37.954,-15.338 z m 231.14,0.873 c -11.638,-0.107 -20.2,3.416 -27.078,10.585 l -0.763,-10.476 h -13.766 V 103.14 h 14.529 V 63.723003 c 0,-10.99 8.854,-24.924 32.257,-23.616 v -12.866 c -1.792,-0.164 -3.517,-0.248 -5.179,-0.263 z m 15.783,0.063 V 103.031 h 14.529 V 27.041003 Z m 65.177,11.713 c 14.083,0 26.45,7.986 26.45,25.432 0,17.435 -10.882,26.151 -26.305,26.151 -8.084,0 -25.124,-5.155 -25.124,-25.851 0,-21.028 16.999,-25.732 24.979,-25.732 z m -171.343,0.399 c 12.774,0 23.18,8.612 23.18,18.945 h -49.067 c 0.908,-10.502 12.206,-18.945 25.887,-18.945 z" fill="#F0F0F0" id="path6" style="fill:#ffffff"></path><path d="m 123.5663,26.042003 c -19.428,0 -42.4338,9.712 -42.4338,38.29 0,28.296 20.6978,39.288997 42.4338,39.288997 21.75,0 42.442,-10.992997 42.442,-39.288997 0,-28.578 -23,-38.29 -42.442,-38.29 z m 91.282,0.009 c -18.237,0 -27.06,10.449 -27.06,10.449 l -0.763,-9.44 h -13.266 V 123.657 h 14.029 V 91.637003 c 0,0 9.022,11.566997 27.214,11.566997 18.207,0 38.99,-8.775997 38.99,-38.880997 0,-30.094 -23.111,-38.272 -39.144,-38.272 z m 132.934,0 c -16.049,0 -39.145,9.701 -39.145,38.272 0,28.302 20.789,38.880997 38.981,38.880997 18.133,0 27.223,-10.076997 27.223,-10.076997 l 0.772,10.058997 h 13.239 V 27.060003 h -13.266 l -0.745,9.44 c 0,0 -8.837,-10.449 -27.059,-10.449 z m -314.6714,0.054 c -15.3338,0 -31.7842996,5.796 -31.7842996,21.317 0,13.439 12.2242996,17.619 32.4111996,21.417 13.4729,2.529 25.8963,3.816 25.8963,11.085 0,4.583 -6.1185,10.459 -21.4076,10.459 -10.8527,0 -21.8197,-2.28 -25.1693,-10.013 L 3.6926265e-7,85.858003 C 5.3445004,97.796003 19.5748,103.976 36.0548,103.976 c 32.9007,0 39.2624,-15.646997 39.2624,-24.532997 0,-14.8 -14.7249,-19.048 -29.4036,-21.671 -14.6341,-2.612 -29.0038,-4.434 -29.0038,-11.249 0,-4.438 4.4125,-8.36 17.2005,-8.36 9.5278,0 20.4928,2.211 23.4703,8.95 l 13.4933,-5.67 c -5.1659,-10.357 -20.426,-15.338 -37.963,-15.338 z m 271.4014,0.873 c -11.64,-0.107 -20.212,3.416 -27.077,10.585 l -0.754,-10.476 h -13.794 V 103.14 h 14.548 V 63.723003 c 0,-10.99 8.863,-24.924 32.266,-23.615 v -12.867 c -1.793,-0.163 -3.526,-0.248 -5.189,-0.263 z m 43.878,11.776 c 14.084,0 26.451,7.986 26.451,25.433 0,17.434 -10.882,26.15 -26.305,26.15 -8.099,0 -25.124,-5.154 -25.124,-25.851 0,-21.028 16.984,-25.732 24.978,-25.732 z m -134.151,0.009 c 7.979,0 24.996,3.137 24.996,25.724 0,22.58 -17.058,25.85 -25.142,25.85 -15.423,0 -26.305,-8.716 -26.305,-26.15 0,-17.446 12.368,-25.424 26.451,-25.424 z m -90.673,0.427 c 10.227,0 27.659,4.263 27.659,25.297 0,20.696 -15.72,25.85 -27.659,25.85 -11.925,0 -27.678,-5.154 -27.678,-25.85 0,-21.034 17.465,-25.297 27.678,-25.297 z" fill="#F0F0F0" id="path8" style="fill:#ffffff"></path><path d="m 516.4523,7.2970032 c -38.587,0 -60.442,13.7379998 -60.442,13.7379998 25.62,4.821 76.291,30.585 92.563,30.585 6.327,0 9.368,-6.151 9.368,-13.466 0,-8.538 -3.038,-17.827 -8.65,-23.334 -5.315,-5.2399998 -17.892,-7.5229998 -32.839,-7.5229998 z m -83.077,64.6039998 c -6.327,0 -9.358,6.153 -9.358,13.475 0,8.538 3.034,17.820997 8.632,23.333997 5.329,5.234 17.909,7.532 32.856,7.532 38.573,0 60.443,-13.747 60.443,-13.747 -25.621,-4.820997 -76.301,-30.593997 -92.573,-30.593997 z" fill="#de1823" id="path10"></path></svg> 