<?xml version="1.0" encoding="UTF-8" standalone="no"?>
<!DOCTYPE svg PUBLIC "-//W3C//DTD SVG 1.1//EN" "http://www.w3.org/Graphics/SVG/1.1/DTD/svg11.dtd">
<svg width="100%" height="100%" viewBox="0 0 180 23" version="1.1" xmlns="http://www.w3.org/2000/svg" xmlns:xlink="http://www.w3.org/1999/xlink" xml:space="preserve" xmlns:serif="http://www.serif.com/" style="fill-rule:evenodd;clip-rule:evenodd;stroke-linejoin:round;stroke-miterlimit:2;">
    <g transform="matrix(1,0,0,1,-0.144,-0.094)">
        <path d="M59.325,15.261L61.746,13.697C62.699,15.483 64.706,17.145 67.151,17.145C68.912,17.145 70.208,16.46 70.208,14.92C70.208,10.934 60.378,13.77 60.378,7.338C60.378,4.624 62.553,2.546 66.003,2.546C68.741,2.546 71.187,3.793 72.483,6.042L70.062,7.582C69.109,6.091 67.665,5.136 65.978,5.136C64.39,5.136 63.508,5.991 63.508,7.141C63.508,10.761 73.363,8.094 73.363,14.599C73.363,17.974 70.379,19.809 67.102,19.809C63.825,19.809 60.499,17.925 59.325,15.259L59.325,15.261ZM76.126,16.141L76.126,9.538L74.562,9.538L74.562,7.314L75.173,7.314C75.883,7.314 76.126,7.021 76.126,6.188L76.126,4.378L79.062,4.378L79.062,7.312L82.144,7.312L81.727,9.536L79.062,9.536L79.062,15.798C79.062,16.801 79.43,17.338 80.358,17.338C80.921,17.338 81.532,17.167 81.849,16.897L81.849,19.294C81.409,19.538 80.724,19.784 79.819,19.784C77.422,19.784 76.126,18.634 76.126,16.139L76.126,16.141ZM83.023,13.402C83.023,9.49 85.493,6.922 89.015,6.922C92.535,6.922 95.005,9.49 95.005,13.354C95.005,17.218 92.56,19.834 89.015,19.834C85.469,19.834 83.023,17.315 83.023,13.402ZM89.015,17.364C90.825,17.364 92.048,15.824 92.048,13.378C92.048,10.932 90.825,9.392 89.015,9.392C87.205,9.392 85.981,10.908 85.981,13.378C85.981,15.848 87.205,17.364 89.015,17.364ZM97.476,7.312L100.312,7.312L100.312,9.733C100.973,8.291 102.025,7.093 104.079,7.019L104.079,9.929C101.438,10.026 100.41,11.885 100.41,14.477L100.41,19.491L97.474,19.491L97.474,7.311L97.476,7.311L97.476,7.312ZM105.058,13.573C105.058,9.538 107.456,6.922 111.001,6.922C115.035,6.922 116.772,10.223 116.478,14.062L107.967,14.062C108.163,16.436 109.337,17.61 111.171,17.61C112.76,17.61 113.886,16.63 114.448,15.653L116.356,16.95C115.352,18.638 113.469,19.81 111.049,19.81C107.234,19.81 105.058,17.34 105.058,13.573ZM113.642,12.057C113.495,10.028 112.37,9.097 110.928,9.097C109.485,9.097 108.36,10.075 108.043,12.057L113.644,12.057L113.642,12.057ZM121.711,17.705L121.492,19.491L118.973,19.491L118.973,2.861L121.884,2.861L121.884,9.097C122.764,7.728 124.208,6.922 125.797,6.922C128.806,6.922 131.103,9.392 131.103,13.232C131.103,17.072 128.657,19.81 125.651,19.81C123.962,19.81 122.544,19.028 121.713,17.707L121.711,17.705ZM124.988,17.559C126.798,17.559 128.07,15.944 128.07,13.379C128.07,10.812 126.774,9.221 124.988,9.221C123.202,9.221 121.882,10.835 121.882,13.378C121.882,15.922 123.154,17.559 124.988,17.559ZM133.426,7.312L136.262,7.312L136.262,9.733C136.922,8.291 137.974,7.093 140.028,7.019L140.028,9.929C137.387,10.026 136.359,11.885 136.359,14.477L136.359,19.491L133.423,19.491L133.423,7.311L133.426,7.311L133.426,7.312ZM141.081,16.63C141.081,14.307 142.645,13.378 146.852,12.009C148.197,11.544 148.565,11.08 148.565,10.444C148.565,9.614 147.758,9.197 146.633,9.197C145.264,9.197 143.992,10.028 143.478,11.105L141.4,9.735C142.352,8.047 144.236,6.924 146.755,6.924C149.274,6.924 151.425,7.927 151.425,10.837L151.425,15.777C151.425,17.122 151.793,17.49 152.6,17.539L152.6,19.641C150.546,19.788 149.323,19.151 148.882,17.563C148.068,18.978 146.552,19.849 144.92,19.839C143.037,19.839 141.081,19.105 141.081,16.635L141.081,16.63ZM145.727,17.732C147.34,17.732 148.587,16.192 148.587,14.333L148.587,12.988C148.22,13.256 147.756,13.478 147.096,13.721C144.92,14.601 143.99,15.213 143.99,16.363C143.99,17.439 144.845,17.732 145.727,17.732ZM154.702,7.312L157.638,7.312L157.638,8.852C158.274,7.972 159.424,6.992 161.332,6.992C164.192,6.992 165.44,9.022 165.44,12.299L165.44,19.489L162.528,19.489L162.528,12.446C162.528,10.636 161.868,9.339 160.155,9.339C158.567,9.339 157.636,10.562 157.636,12.373L157.636,19.489L154.7,19.489L154.7,7.31L154.702,7.313L154.702,7.312ZM167.737,13.476C167.737,9.806 169.962,6.922 173.214,6.922C174.903,6.922 176.174,7.631 176.981,8.805L176.981,2.863L179.89,2.863L179.89,19.493L176.981,19.493L176.981,17.93C176.174,19.129 174.951,19.838 173.263,19.838C170.059,19.838 167.735,17.221 167.735,13.478L167.737,13.477L167.737,13.476ZM173.875,17.535C175.758,17.535 176.981,15.871 176.981,13.327C176.981,10.784 175.758,9.219 173.875,9.219C171.991,9.219 170.768,10.809 170.768,13.327C170.768,15.847 172.016,17.535 173.875,17.535Z" style="fill:white;fill-rule:nonzero;"/>
        <path d="M25.513,18.504C31.008,18.504 38.846,16.227 38.846,10.796C38.846,9.171 38.066,7.706 36.699,6.503C35.561,7.153 34.682,8.129 34.194,9.366C34.779,9.853 35.072,10.308 35.072,10.796C35.072,13.399 29.414,14.731 25.511,14.731C21.608,14.731 15.951,13.399 15.951,10.796C15.951,10.308 16.243,9.853 16.828,9.366C16.346,8.153 15.462,7.141 14.323,6.503C12.958,7.706 12.175,9.171 12.175,10.796C12.175,16.226 20.013,18.504 25.509,18.504L25.513,18.504ZM39.496,0.096C33.219,0.096 27.561,5.624 28.146,12.616C29.609,12.454 31.041,11.966 31.886,11.511C31.886,7.283 35.301,3.868 39.496,3.868C43.692,3.868 47.074,7.283 47.074,11.478C47.074,15.674 43.692,19.089 39.496,19.089C38.179,19.084 36.887,18.725 35.756,18.049C34.447,18.767 33.047,19.303 31.593,19.642C33.643,21.624 36.406,22.862 39.496,22.862C45.774,22.862 50.879,17.756 50.879,11.479C50.88,5.2 45.775,0.096 39.496,0.096ZM15.267,18.046C14.136,18.722 12.844,19.082 11.527,19.087C7.332,19.087 3.949,15.672 3.949,11.477C3.949,7.281 7.332,3.867 11.527,3.867C15.723,3.867 19.137,7.281 19.137,11.509C19.983,11.964 21.415,12.452 22.877,12.614C23.463,5.621 17.805,0.094 11.527,0.094C5.25,0.094 0.144,5.199 0.144,11.477C0.144,17.754 5.25,22.86 11.527,22.86C14.617,22.86 17.38,21.624 19.43,19.64C17.977,19.301 16.576,18.765 15.268,18.047L15.267,18.046ZM26.976,6.99C27.435,5.686 28.105,4.467 28.959,3.38C27.073,3.055 23.951,3.055 22.063,3.38C22.917,4.467 23.587,5.686 24.046,6.99C25.021,6.925 25.999,6.925 26.974,6.99L26.976,6.99Z" style="fill:white;fill-rule:nonzero;"/>
    </g>
</svg>
